<?xml version="1.0" encoding="UTF-8"?>
<svg width="428px" height="437px" viewBox="0 0 428 437" version="1.1" xmlns="http://www.w3.org/2000/svg" xmlns:xlink="http://www.w3.org/1999/xlink">
    <!-- Generator: Sketch 53 (72520) - https://sketchapp.com -->
    <title>undraw_report_mx0a</title>
    <desc>Created with Sketch.</desc>
    <defs>
        <linearGradient x1="49.9963627%" y1="100.004109%" x2="49.9963627%" y2="7.92274891e-06%" id="linearGradient-1">
            <stop stop-color="#808080" stop-opacity="0.25" offset="0%"></stop>
            <stop stop-color="#808080" stop-opacity="0.12" offset="54%"></stop>
            <stop stop-color="#808080" stop-opacity="0.1" offset="100%"></stop>
        </linearGradient>
        <linearGradient x1="12.3529961%" y1="-96.1078179%" x2="90.3741113%" y2="251.553529%" id="linearGradient-2">
            <stop stop-color="#FAD961" offset="0%"></stop>
            <stop stop-color="#F76B1C" offset="100%"></stop>
        </linearGradient>
    </defs>
    <g id="Page-1" stroke="none" stroke-width="1" fill="none" fill-rule="evenodd">
        <g id="Artboard" transform="translate(-154.000000, -239.000000)" fill-rule="nonzero">
            <g id="undraw_report_mx0a" transform="translate(91.000000, 219.000000)">
                <path d="M63,433.101268 C99.4492086,442.9201 143.93212,436.942512 185.290814,437.638389 C190.9516,437.735812 196.947122,438.021122 201.492116,439.726022 C206.037109,441.430922 208.268693,444.179638 211.385472,446.531704 C222.974833,455.292802 246.726327,458.111106 267.48006,456.621928 C288.233794,455.132751 307.276645,450.212896 326.869955,446.469075 C360.730526,439.990455 399.441073,437.039935 432.84045,444.103092 C435.905159,444.750258 439.133517,445.494847 442.421385,445.237372 C449.740981,444.659794 451.920495,439.96262 457.0457,437.276533 C466.291897,432.40539 486.368716,433.748434 490.430199,427.360278 C492.810556,423.616457 487.335736,419.775213 481.369968,417.221343 C458.5483,407.444263 425.892784,405.829827 396.011872,407.339882 C366.130959,408.849936 336.763311,413.004325 306.748504,413.025201 C269.332275,413.025201 233.180611,406.644004 196.128875,404.020546 C170.465657,402.211264 142.459275,402.433945 118.395359,407.778285 C92.3081392,413.547109 86.5580906,426.511308 63,433.101268 Z" id="Path" fill="#009FFD" opacity="0.1"></path>
                <g id="tablet" transform="translate(127.000000, 20.000000)">
                    <g id="Group-7">
                        <path d="M277.669298,3.16909956e-05 L23.3307024,3.16909956e-05 C17.1522286,-0.0101671507 11.2228491,2.44166096 6.84733442,6.81598681 C2.47181978,11.1903127 0.00870394231,17.1286998 0,23.3243953 L0,376.692072 C0.027183037,389.587669 10.4709343,400.021211 23.3307024,399.999968 L277.669298,399.999968 C283.847771,400.010166 289.777151,397.558338 294.152666,393.184013 C298.52818,388.809687 300.991296,382.8713 301,376.675604 L301,23.3243953 C300.991296,17.1286998 298.52818,11.1903127 294.152666,6.81598681 C289.777151,2.44166096 283.847771,-0.0101671507 277.669298,3.16909956e-05 Z" id="Path" fill="url(#linearGradient-1)"></path>
                        <rect id="Rectangle" fill="#535461" x="4" y="5" width="294" height="392" rx="20"></rect>
                        <rect id="Rectangle" fill="#F6F7F9" x="19" y="42" width="264" height="318"></rect>
                        <circle id="Oval" fill="#F6F7F9" cx="149.5" cy="22.5" r="3.5"></circle>
                        <circle id="Oval" fill="#F6F7F9" cx="150" cy="377" r="11"></circle>
                    </g>
                    <g id="Group-6" transform="translate(19.000000, 41.000000)">
                        <rect id="Rectangle" fill="#BCC9E0" x="0.0329192547" y="0.469333333" width="264" height="15.376"></rect>
                        <circle id="Oval" fill="#F6F7F9" cx="7.5" cy="7.5" r="3.5"></circle>
                        <circle id="Oval" fill="#F6F7F9" cx="16.5" cy="7.5" r="3.5"></circle>
                        <circle id="Oval" fill="#F6F7F9" cx="25.5" cy="7.5" r="3.5"></circle>
                    </g>
                    <g id="Group-5" transform="translate(26.000000, 135.000000)">
                        <rect id="Rectangle" fill="#DCE0ED" x="1" y="0" width="246" height="1"></rect>
                        <rect id="Rectangle" fill="#DCE0ED" x="1" y="19" width="246" height="1"></rect>
                        <rect id="Rectangle" fill="#DCE0ED" x="1" y="38" width="246" height="1"></rect>
                        <rect id="Rectangle" fill="#DCE0ED" x="1" y="58" width="246" height="1"></rect>
                        <rect id="Rectangle" fill="#DCE0ED" x="1" y="77" width="246" height="1"></rect>
                        <g id="Group" opacity="0.2" transform="translate(0.000000, 12.000000)" fill="#FAC655">
                            <polygon id="Path" points="246.709734 65.868 0.498381375 65.868 0.498381375 28.193 23.0788914 39.369 46.4480488 42.5535 66.9528825 36.344 91.6912195 17.0775 104.134324 9.8615 113.231153 8.1015 121.933659 8.569 136.244324 15.6695 155.703104 28.116 170.972195 30.085 183.075743 25.894 208.739645 4.7905 221.839956 0.099 235.548182 2.2275 246.709734 8.701"></polygon>
                        </g>
                        <path d="M43.0011329,54.9980379 C20.7845211,54.9980379 0.257886085,41.2473866 0,41.0696722 L0.614537053,40.1477787 C0.932779456,40.3643681 32.5265683,61.5179348 59.3741559,50.921714 C69.1628532,47.0342116 76.1312644,41.0474579 82.8747112,35.232865 C89.9144526,29.1628076 96.5591345,23.4315184 105.623556,20.9435168 C116.015817,18.0945329 127.373778,20.6713917 136.004732,27.852164 C143.384663,33.9888642 158.078683,43.840906 173.601231,40.8975113 C181.513395,39.3924925 188.180025,33.5445782 195.241714,27.3523422 C208.77799,15.4787992 222.780656,3.19984514 247,20.8157846 L246.358028,21.7154637 C222.841012,4.61045316 209.178537,16.6006213 195.960503,28.190932 C188.783588,34.4831324 182.00722,40.4087967 173.804247,41.986012 C157.837258,45.0182639 142.835969,34.9662934 135.307891,28.7074145 C126.951284,21.7598923 115.966434,19.2663372 105.908877,22.0153568 C97.0858806,24.4367154 90.5454505,30.0902546 83.5825262,36.0770083 C76.7732362,41.9526906 69.7334948,48.0227479 59.7747023,51.9546789 C54.419981,54.0191062 48.7309207,55.0513166 43.0011329,54.9980379 Z" id="Path" fill="#F77B26"></path>
                        <circle id="Oval" fill="url(#linearGradient-2)" cx="119" cy="20" r="6"></circle>
                    </g>
                    <g id="Group-10" transform="translate(147.000000, 74.000000)">
                        <g id="Group" opacity="0.2" fill="#F77B26">
                            <path d="M77.7468966,0.1925 L1.25310345,0.1925 C0.567051523,0.1925 0.0108965517,0.753934924 0.0108965517,1.4465 L0.0108965517,53.669 C0.0115537006,54.1827788 0.322598905,54.6441768 0.795804494,54.8333161 C1.26901008,55.0224555 1.80863288,54.9010678 2.15751724,54.527 L15.4131724,40.2545 C15.6472488,40.0016705 15.9747775,39.8582612 16.3175862,39.8585 L77.7468966,39.8585 C78.4329485,39.8585 78.9891034,39.2970651 78.9891034,38.6045 L78.9891034,1.4355 C78.9831226,0.747234528 78.4287155,0.192473519 77.7468966,0.1925 Z" id="Path"></path>
                        </g>
                        <rect id="Rectangle" fill="#F6F7F9" x="17" y="10" width="44" height="5"></rect>
                        <rect id="Rectangle" fill="#F6F7F9" x="17" y="22" width="12" height="5"></rect>
                        <rect id="Rectangle" fill="#F6F7F9" x="43" y="22" width="18" height="5"></rect>
                    </g>
                    <g id="Group-9" transform="translate(47.000000, 252.000000)">
                        <g id="Group" opacity="0.2" fill="#546DE5">
                            <rect id="Rectangle" x="0.214782609" y="0.174545455" width="12.4065217" height="5.45454545"></rect>
                            <rect id="Rectangle" x="0.214782609" y="10.3545455" width="12.4065217" height="5.45454545"></rect>
                            <rect id="Rectangle" x="0.214782609" y="21.5345455" width="12.4065217" height="5.45454545"></rect>
                            <rect id="Rectangle" x="0.214782609" y="32.1745455" width="12.4065217" height="5.45454545"></rect>
                            <rect id="Rectangle" x="0.214782609" y="42.3545455" width="12.4065217" height="5.45454545"></rect>
                            <rect id="Rectangle" x="0.214782609" y="52.5345455" width="12.4065217" height="5.45454545"></rect>
                            <rect id="Rectangle" x="0.214782609" y="63.1745455" width="12.4065217" height="5.45454545"></rect>
                            <rect id="Rectangle" x="0.214782609" y="74.3545455" width="12.4065217" height="5.45454545"></rect>
                        </g>
                        <g id="Group" opacity="0.2" transform="translate(22.000000, 79.000000)" fill="#546DE5">
                            <rect id="Rectangle" x="0.401304348" y="0.354545455" width="12.4065217" height="5.45454545"></rect>
                            <rect id="Rectangle" x="22.2147826" y="0.354545455" width="12.4065217" height="5.45454545"></rect>
                            <rect id="Rectangle" x="43.0272727" y="0.354545455" width="11.9727273" height="5.45454545"></rect>
                            <rect id="Rectangle" x="64.4013043" y="0.354545455" width="12.4065217" height="5.45454545"></rect>
                            <rect id="Rectangle" x="85.2147826" y="0.354545455" width="12.4065217" height="5.45454545"></rect>
                            <rect id="Rectangle" x="107.027273" y="0.354545455" width="11.9727273" height="5.45454545"></rect>
                            <rect id="Rectangle" x="128.401304" y="0.354545455" width="12.4065217" height="5.45454545"></rect>
                            <rect id="Rectangle" x="149.214783" y="0.354545455" width="12.4065217" height="5.45454545"></rect>
                            <rect id="Rectangle" x="170.028261" y="0.354545455" width="12.4065217" height="5.45454545"></rect>
                        </g>
                        <g id="Group-8" transform="translate(23.000000, 5.000000)" fill="#009FFD">
                            <rect id="Rectangle" x="0" y="35" width="12" height="34"></rect>
                            <rect id="Rectangle" x="21" y="19" width="12" height="50"></rect>
                            <rect id="Rectangle" x="42" y="5" width="12" height="64"></rect>
                            <rect id="Rectangle" x="64" y="12" width="12" height="57"></rect>
                            <rect id="Rectangle" x="85" y="0" width="12" height="69"></rect>
                            <g id="Group" opacity="0.2" transform="translate(106.000000, 26.000000)">
                                <rect id="Rectangle" x="0.0272727273" y="0.176410256" width="11.9727273" height="42.630641"></rect>
                                <rect id="Rectangle" x="21.4013043" y="0.176410256" width="12.4065217" height="42.630641"></rect>
                                <rect id="Rectangle" x="42.2147826" y="0.176410256" width="12.4065217" height="42.630641"></rect>
                                <rect id="Rectangle" x="63.0282609" y="0.176410256" width="12.4065217" height="42.630641"></rect>
                            </g>
                        </g>
                    </g>
                </g>
            </g>
        </g>
    </g>
</svg>