<?xml version="1.0" encoding="UTF-8"?>
<svg width="255px" height="69px" viewBox="0 0 255 69" version="1.1" xmlns="http://www.w3.org/2000/svg" xmlns:xlink="http://www.w3.org/1999/xlink">
    <!-- Generator: Sketch 53 (72520) - https://sketchapp.com -->
    <title>Group</title>
    <desc>Created with Sketch.</desc>
    <g id="Page-1" stroke="none" stroke-width="1" fill="none" fill-rule="evenodd">
        <g id="FINAL-LOGO-vecinoss-(1)" transform="translate(-53.000000, -269.000000)" fill-rule="nonzero">
            <g id="Group" transform="translate(53.000000, 269.000000)">
                <g transform="translate(63.000000, 19.000000)">
                    <g transform="translate(140.947977, 15.750000)" fill="#FF5100">
                        <path d="M15.1968555,4.852125 C14.1536185,2.455875 12.1448324,1.020375 9.67768786,0.9135 C7.96855491,0.851625 5.75001156,1.05075 3.53035838,3.211875 C2.89331792,3.868875 2.80009249,4.856625 3.26954913,5.927625 C3.76786127,7.057125 4.94871676,8.343 6.15953757,8.49825 C6.79213873,8.582625 7.32707514,8.33625 7.63449711,7.8345 C8.21604624,6.888375 9.31366474,6.73425 9.65882081,6.739875 C9.84305202,6.748875 10.400185,6.778125 10.5133873,7.749 C10.6399075,8.874 9.94071676,10.51875 8.51569942,10.643625 C8.18719075,10.659375 7.67667052,10.63125 7.4336185,10.6155 L7.24383815,10.60425 C6.54353757,10.647 6.02191908,10.91925 5.70672832,11.5245 C5.09965318,12.682125 5.45923699,14.78025 6.17285549,15.811875 C6.68337572,16.54875 7.27824277,16.657875 7.58677457,16.655625 C7.90862428,16.655625 8.40915607,16.684875 8.75542197,16.770375 C9.74094798,17.02575 10.4667746,18.952875 10.2492486,20.73825 C10.1493642,21.537 9.70321387,23.378625 7.75768786,23.1165 C7.47246243,23.079375 7.27158382,22.973625 7.10732948,22.7655 C6.62122543,22.161375 6.48360694,20.772 6.74552601,19.240875 C6.99523699,17.964 5.63236994,16.844625 4.1574104,16.398 C2.46936416,15.890625 1.0976185,16.349625 0.729156069,17.620875 C0.266358382,20.05425 0.526057803,23.513625 2.64471676,25.929 C3.9942659,27.471375 5.89428902,28.305 8.13946821,28.34325 C8.2016185,28.344375 8.26598844,28.344375 8.32813873,28.344375 C11.8063353,28.333125 14.4410636,26.548875 15.5708671,23.4315 C16.7461734,20.194875 16.0247861,16.182 13.9150058,13.698 C15.9415491,11.51325 16.5097803,7.867125 15.1968555,4.852125" id="Path"></path>
                        <path d="M29.5191676,12.28275 C28.5613873,11.56275 26.9710058,10.82475 24.7735491,10.8495 C25.7834913,8.7345 27.3816416,7.043625 29.6246012,5.709375 C30.2283468,5.358375 30.5180116,4.7385 30.4181272,4.008375 C30.2683006,2.916 29.260578,1.737 28.0220116,1.202625 C26.8333873,0.687375 25.5926012,0.8235 24.6226127,1.584 C19.1112139,5.914125 17.1113064,14.73075 17.1113064,19.60425 C17.1212948,22.280625 17.9536647,24.526125 19.5151908,26.1 C20.8325549,27.428625 22.6138266,28.19475 24.6636763,28.319625 C24.8179422,28.328625 24.9699884,28.330875 25.1220347,28.330875 C26.9288324,28.32525 28.5558382,27.66375 29.8510058,26.406 C31.8065202,24.5025 32.8630751,21.3705 32.6089249,18.234 L32.6089249,18.228375 C32.3936185,15.7635 31.2682543,13.595625 29.5191676,12.28275 M25.9377572,22.588875 C25.2751908,23.205375 24.550474,23.392125 23.8035607,23.140125 C22.6670983,22.75425 22.1543584,20.36925 22.7303584,18.1395 C22.8624277,17.622 23.5616185,15.27525 25.2430058,15.269625 C25.4294566,15.269625 25.6281156,15.2955 25.8400925,15.36075 L25.8467514,15.363 C26.5781272,15.575625 27.0875376,16.117875 27.3561156,16.974 C27.9243468,18.77625 27.2762081,21.348 25.9377572,22.588875" id="Shape"></path>
                        <path d="M48.6603468,3.261375 C47.8068902,1.661625 44.0556763,0.621 42.6117919,0.804375 C40.1901503,1.0485 38.073711,2.63475 36.4899884,5.3955 C33.4934566,10.618875 32.723237,19.751625 34.8774104,24.5655 C35.7430751,26.465625 38.9060809,28.26225 41.0735723,28.2555 C41.3532486,28.254375 41.6151676,28.224 41.8526705,28.161 C44.768185,27.417375 47.0921618,25.1865 48.5737803,21.708 C51.1519075,15.649875 50.6891098,7.12575 48.6603468,3.261375 M43.9036301,17.076375 C43.3376185,19.324125 42.7227746,21.051 41.6373642,22.014 C41.2233988,22.384125 40.3277688,22.195125 40.0880462,21.699 C39.1635607,19.769625 38.9371561,15.247125 39.9537572,11.556 C40.4764855,9.65475 41.472,8.274375 42.3343353,7.498125 C42.7161156,7.153875 43.334289,7.243875 43.5562543,7.707375 C44.5972717,9.867375 44.7781734,13.611375 43.9036301,17.076375" id="Shape"></path>
                    </g>
                    <g>
                        <g transform="translate(23.306358, 10.000000)">
                            <path d="M48.7646705,2.63825 C49.0476763,3.34925 49.0066127,4.076 48.8223815,4.8455 C48.3939884,6.646625 46.2331561,7.308125 44.3298035,6.516125 C42.4331098,5.7725 41.5530173,3.89825 42.0502197,2.2445 C42.5884855,0.492875 44.5406705,-0.65575 47.0522081,0.46925 C47.7192139,0.76625 48.2885549,1.40525 48.5526936,2.040875 C48.6092948,2.17475 48.7113988,2.502125 48.7646705,2.63825" id="Path" fill="#DE5213"></path>
                            <path d="M37.7241156,22.205375 C37.3001618,23.23025 36.8029595,24.21575 36.2203006,25.112375 C31.8564624,31.84775 24.1187514,27.82475 25.9932486,20.670875 C27.4437919,15.223625 29.4370405,12.530375 30.886474,12.775625 C31.7332717,13.203125 30.886474,16.449875 29.3160694,18.6515 C29.5557919,20.123 32.2748671,20.857625 33.9052023,19.754 C36.0804624,17.48825 37.2269133,11.735 36.1403931,10.0205 C34.9939422,8.122625 27.2628902,7.1405 24.0632601,10.327625 C22.387422,12.37625 20.8014798,15.482375 19.8769942,18.355625 C19.8714451,18.364625 19.865896,18.37025 19.8603468,18.37925 C19.315422,19.72925 18.0824046,22.203125 17.478659,23.42825 C14.1580578,30.222125 6.91089017,29.1815 7.21165318,24.835625 C12.5288324,25.50725 15.545341,20.429 16.9337341,16.938125 C17.9625434,14.366375 18.3243468,11.184875 17.5385896,10.02275 C16.3910289,8.1215 8.54122543,6.594875 4.67569942,10.75625 C2.62252023,13.263875 1.59593064,16.080875 0.749132948,20.182625 C-1.90779191,33.894125 13.0704277,37.386125 18.3243468,28.813625 C18.6772717,28.259 19.0612717,27.58175 19.4552601,26.83925 C21.8347283,34.740125 32.6599769,35.770625 36.9250405,28.815875 C37.2091561,28.370375 37.5132486,27.848375 37.8262197,27.28025 C38.2002312,30.2075 39.5941734,32.226875 41.9447861,32.88275 C45.3452948,33.8885 47.7980116,31.88375 49.8056879,29.081375 C49.779052,29.463875 49.7646243,29.79575 49.7679538,30.05225 C49.952185,32.33825 54.4947052,33.558875 56.4324624,32.2325 C56.8808324,31.76225 59.1559769,25.976375 60.5532486,22.5305 C59.8163237,27.19475 60.7563468,31.01075 63.5486705,32.177375 C66.8759306,33.601625 69.2687168,31.292 71.2353295,28.392875 C72.3052023,30.881375 74.2407399,32.751125 77.1473757,33.28325 C83.0039306,34.323875 87.3522312,30.836375 89.6495723,26.18225 C89.6495723,26.675 89.7083931,27.103625 89.9503353,27.59075 C91.3387283,30.712625 95.0244624,33.28325 99.1896416,33.53075 C102.754405,33.713 106.076116,31.75325 108.067145,28.8755 C108.86511,27.72575 109.605364,26.53775 110.249064,25.290125 C110.522081,24.76025 110.725179,24.158375 110.626405,23.56775 C110.516532,22.907375 110.004902,22.33475 109.370081,22.157 C108.390104,21.883625 107.665387,22.491125 107.222566,23.305625 C105.170497,19.0205 99.6147052,14.4305 97.862289,12.40775 C97.9588439,12.309875 98.2363006,12.127625 98.5059884,11.88575 C99.1519075,11.303 99.3827514,10.367 99.4160462,9.524375 C99.4482312,8.72225 99.2540116,7.836875 98.4538266,7.485875 C97.5493179,7.091 96.8490173,6.997625 95.7813642,7.17875 C94.4540116,7.402625 93.6815723,8.25425 93.510659,8.63675 C92.8947052,10.010375 93.0911445,11.308625 92.9690636,13.5755 C92.8480925,14.796125 92.0024046,15.716375 91.2787977,16.022375 C90.6140116,12.165875 88.2589595,8.981 83.9716994,8.309375 C75.6013873,7.06175 70.5993988,14.991875 70.2486936,22.268375 C70.1599075,22.479875 70.0700116,22.704875 69.9845549,22.907375 C67.6028671,28.29275 65.3188439,27.564875 66.3221272,22.848875 C66.7338728,20.843 69.2576185,11.75975 69.5583815,10.460375 C69.4662659,9.054125 67.6217341,8.37575 65.3587977,8.412875 C63.7784046,8.381375 63.1080694,8.918 62.649711,9.922625 C62.2224277,10.8935 61.0338035,13.42475 59.9406243,15.795125 C58.7031676,18.47825 57.2370867,21.03425 56.8364393,21.944375 C57.1749364,20.41325 58.7797457,13.101875 59.0227977,11.27375 C58.3546821,9.17 53.9819653,8.358875 52.8743584,9.202625 C52.8388439,9.79775 51.942104,14.69825 51.1219422,19.6685 C50.6402775,20.98925 49.971052,22.576625 49.4350058,23.69825 C47.0499884,29.024 44.0101734,28.0925 45.0767168,23.375375 C45.7903353,20.072375 47.622659,13.69475 48.0810173,12.10175 C47.9866821,10.633625 46.1166243,9.666125 44.6183584,9.218375 C43.0579422,8.77625 41.7083931,8.563625 41.3132948,9.571625 C41.0136416,10.228625 39.9027052,14.006375 39.1402543,17.556875 C38.8106358,19.09475 38.3478382,20.6945 37.7241156,22.205375 Z M12.2824509,12.77675 C12.9483468,13.144625 12.8284855,14.91875 11.7996763,17.001125 C10.7142659,19.325375 9.32476301,20.000375 7.75435838,19.325375 C8.43801156,14.633 10.5167168,11.774375 12.2824509,12.77675 Z M79.3237457,27.161 C75.8821734,26.181125 75.7600925,21.527 77.9353526,18.16325 C78.8409711,20.7935 81.740948,22.018625 85.0016185,21.897125 C84.2735723,24.5915 82.2226127,26.979875 79.3237457,27.161 Z M85.0615491,17.795375 C82.8873988,17.795375 81.0295491,16.699625 81.5145434,14.741 C83.6054566,13.263875 85.3012717,15.28775 85.0615491,17.795375 Z M95.3274451,27.1025 C94.6615491,26.3645 93.939052,25.508375 93.5150983,24.04025 C93.3663815,23.3855 92.953526,23.1245 92.5295723,23.024375 C92.1999538,22.9445 91.8947514,22.929875 91.5196301,23.109875 C91.2055491,23.262875 90.8947977,23.498 90.6162312,23.79275 C90.9192139,22.812875 91.1589364,21.7745 91.2810173,20.7935 C92.7304509,20.427875 94.4828671,19.203875 95.3873757,17.734625 C97.1409017,19.57175 100.400462,22.203125 101.125179,24.40925 C102.391491,27.59075 97.9244393,29.7935 95.3274451,27.1025 Z" id="Shape" fill="#FF5100"></path>
                        </g>
                        <path d="M20.9557457,2.451375 C19.8536879,6.61725 15.0769942,26.766 12.3212948,35.274375 C11.3058035,33.710625 10.4923006,32.013 9.86524855,30.252375 C9.24152601,28.49625 8.7987052,26.676 8.50904046,24.832125 C8.22159538,23.016375 8.08175723,21.17925 8.06843931,19.342125 C8.05512139,17.593875 8.15611561,15.8445 8.36476301,14.10975 C8.48462428,13.129875 8.66108671,12.162375 8.74543353,11.176875 C8.87195376,9.581625 7.00078613,8.4825 5.02418497,8.451 C4.18071676,8.4375 3.31061272,8.614125 2.56591908,9.02475 C2.22631214,9.21375 1.91223121,9.453375 1.65919075,9.75375 C1.54154913,9.894375 1.43611561,10.045125 1.35176879,10.2105 C1.04212717,10.8 1.04101734,11.476125 0.973317919,12.12525 C-0.276346821,24.091875 4.64018497,37.256625 9.24485549,41.999625 C10.8973873,43.77375 14.8250636,44.082 15.9959306,42.12225 C19.0945665,36.734625 27.2240462,10.164375 28.9487168,4.10625 C29.843237,0.923625 21.9212948,-1.10025 20.9557457,2.451375" id="Path" fill="#FF5100"></path>
                    </g>
                </g>
                <g id="XMLID_10_">
                    <path d="M49.4320851,17.4536613 L26.8253617,5.73812903 C26.1305532,5.37643548 25.2996596,5.37866129 24.6026383,5.73924194 L1.86757447,17.5961129 C1.29225532,17.8954839 0.869617021,18.4018548 0.673787234,19.020629 C0.477957447,19.6405161 0.533276596,20.3004677 0.830893617,20.8769516 C1.2612766,21.711629 2.10876596,22.1901774 2.98391489,22.1901774 C3.35897872,22.1901774 3.73846809,22.1022581 4.0947234,21.9175161 L25.0175319,11.0066129 C25.456766,10.7784677 25.9845106,10.775129 26.0641702,10.8174194 L46.8553191,21.5925484 C47.7902128,22.0766613 48.4451915,22.1323065 49.0625532,21.9353226 C49.6788085,21.7361129 50.1811064,21.309871 50.4765106,20.7300484 C51.0861277,19.5392419 50.6181277,18.0679839 49.4320851,17.4536613 Z" id="XMLID_18_" fill="#009BFB"></path>
                    <path d="M33.875234,5.24733871 L47.3742128,12.2475 C48.5580426,12.8607097 50.0251064,12.3888387 50.6358298,11.1991452 L50.6358298,11.1991452 C51.2454468,10.0083387 50.7763404,8.53262903 49.593617,7.91941935 L36.0935319,0.920370968 C34.9097021,0.306048387 33.4426383,0.779032258 32.8319149,1.96872581 C32.2211915,3.15841935 32.6914043,4.63412903 33.875234,5.24733871 Z" id="XMLID_17_" fill="#009BFB"></path>
                    <path d="M41.6763404,24.2857742 C41.6763404,23.4978387 41.2293617,22.7777903 40.5245957,22.4316774 L28.1618723,16.3708065 C26.5078298,15.5761935 24.5838298,15.5873226 22.9408511,16.4030806 L10.9133617,22.4272258 C10.2185532,22.7755645 9.77710638,23.4911613 9.77710638,24.2735323 L9.78153191,61.134 L9.78153191,63.2974839 C9.78153191,66.4325323 12.3317447,68.9988871 15.4484255,68.9988871 L21.9982128,68.9988871 L21.9982128,60.7823226 C21.9982128,59.8775323 22.7350638,59.1374516 23.6334468,59.1374516 L27.1904681,59.1374516 C28.0412766,59.1374516 28.7316596,59.8319032 28.7316596,60.6877258 L28.7316596,69 L36.0160851,69 C39.132766,69 41.6840851,66.4347581 41.6840851,63.2985968 L41.6840851,60.6899516 L41.6840851,60.6799355 L41.6763404,24.2857742 Z M21.9982128,45.3675 C21.9982128,46.0864355 21.4184681,46.6707097 20.7037447,46.6707097 L17.656766,46.6707097 C16.9420426,46.6707097 16.3611915,46.0875484 16.3611915,45.3675 L16.3611915,42.3181452 C16.3611915,41.5992097 16.9409362,41.0149355 17.656766,41.0149355 L20.7037447,41.0149355 C21.4184681,41.0149355 21.9982128,41.5980968 21.9982128,42.3181452 L21.9982128,45.3675 Z M21.9982128,30.1340806 C21.9982128,30.8530161 21.4184681,31.4372903 20.7037447,31.4372903 L17.656766,31.4372903 C16.9420426,31.4372903 16.3611915,30.854129 16.3611915,30.1340806 L16.3611915,27.0847258 C16.3611915,26.3646774 16.9409362,25.7815161 17.656766,25.7815161 L20.7037447,25.7815161 C21.4184681,25.7815161 21.9982128,26.3646774 21.9982128,27.0847258 L21.9982128,30.1340806 Z M35.0236596,52.9830968 C35.0236596,53.7020323 34.4439149,54.2863065 33.7280851,54.2863065 L30.6822128,54.2863065 C29.9674894,54.2863065 29.3866383,53.7031452 29.3866383,52.9830968 L29.3866383,49.9337419 C29.3866383,49.2136935 29.966383,48.6305323 30.6822128,48.6305323 L33.7280851,48.6305323 C34.4439149,48.6305323 35.0236596,49.2136935 35.0236596,49.9337419 L35.0236596,52.9830968 Z M35.0236596,37.7507903 C35.0236596,38.4697258 34.4439149,39.054 33.7280851,39.054 L30.6822128,39.054 C29.9674894,39.054 29.3866383,38.4708387 29.3866383,37.7507903 L29.3866383,34.7014355 C29.3866383,33.9813871 29.966383,33.3982258 30.6822128,33.3982258 L33.7280851,33.3982258 C34.4439149,33.3982258 35.0236596,33.9813871 35.0236596,34.7014355 L35.0236596,37.7507903 Z" id="XMLID_11_" fill="#FF5100"></path>
                </g>
            </g>
        </g>
    </g>
</svg>